# xmcd
#
# Track frame offsets: 
#        182
#        12432
#        28177
#        41552
#        58272
#        74490
#        86015
#        98985
#        112097
#        126410
#
# Disc length: 1880 seconds
#
# Revision: 3
# Processed by: cddbd v1.5.2PL0 Copyright (c) Steve Scherf et al.
# Submitted via: ExactAudioCopy v1.3
#
DISCID=9407560a
DTITLE=Waylon Jennings - New Classic Waylon
DYEAR=1989
DGENRE=Country
TTITLE0=Working Without A Net
TTITLE1=Will The Wolfe Survive
TTITLE2=What You'll Do When I'm Gone
TTITLE3=Rose In Paradise
TTITLE4=Fallin' Out
TTITLE5=Rough And Roudy Days
TTITLE6=If Ole Hank Could Only See Us Now
TTITLE7=How Much Is  Worth To Live In L.A.
TTITLE8=Which way Do I Go (Now That I'm Gone)
TTITLE9=Trouble Man
EXTD=ID3G:   2
EXTT0=
EXTT1=
EXTT2=
EXTT3=
EXTT4=
EXTT5=
EXTT6=
EXTT7=
EXTT8=
EXTT9=
PLAYORDER=
